<?xml version="1.0" standalone="no"?>
<!DOCTYPE svg PUBLIC "-//W3C//DTD SVG 20010904//EN"
 "http://www.w3.org/TR/2001/REC-SVG-20010904/DTD/svg10.dtd">
<svg version="1.0" xmlns="http://www.w3.org/2000/svg"
 width="700.000000pt" height="700.000000pt" viewBox="0 0 700.000000 700.000000"
 preserveAspectRatio="xMidYMid meet">
<metadata>
Created by potrace 1.14, written by Peter Selinger 2001-2017
</metadata>
<g transform="translate(0.000000,700.000000) scale(0.100000,-0.100000)"
fill="#000000" stroke="none">
<path d="M2155 4838 c-3 -7 -4 -272 -3 -588 l3 -575 585 0 585 0 3 588 2 587
-585 0 c-459 0 -587 -3 -590 -12z"/>
<path d="M3520 4331 c0 -338 0 -340 -23 -366 -15 -18 -36 -28 -65 -32 -42 -6
-43 -6 -40 -42 3 -31 7 -36 30 -39 40 -5 103 15 137 44 55 46 61 89 61 451 l0
323 -50 0 -50 0 0 -339z"/>
<path d="M3692 4633 l3 -38 113 -3 112 -3 0 -279 0 -280 50 0 50 0 0 280 0
280 110 0 110 0 0 40 0 40 -276 0 -275 0 3 -37z"/>
<path d="M4320 4350 l0 -320 149 0 c152 0 193 7 245 43 34 24 65 89 66 137 0
53 -38 121 -82 145 l-36 21 28 16 c70 40 81 160 21 222 -45 46 -88 56 -250 56
l-141 0 0 -320z m303 220 c52 -41 43 -120 -18 -145 -20 -9 -67 -15 -115 -15
l-80 0 0 90 0 90 94 0 c78 0 97 -3 119 -20z m2 -252 c15 -7 33 -24 41 -39 29
-57 9 -134 -41 -157 -14 -7 -68 -12 -120 -12 l-95 0 0 110 0 110 95 0 c52 0
106 -5 120 -12z"/>
<path d="M2160 3030 l0 -580 585 0 585 0 0 580 0 580 -585 0 -585 0 0 -580z"/>
<path d="M3392 3028 l3 -583 585 0 585 0 3 583 2 582 -590 0 -590 0 2 -582z"/>
</g>
</svg>
